paper_minjerk_10cycles
version=1
nRows=232
nColumns=3
inDegrees=yes
endheader
time	r_shoulder_elev	r_elbow_flex
0.0000	0.000000	0.000000
0.0100	0.000000	0.000235
0.0200	0.000000	0.001859
0.0300	0.000000	0.006210
0.0400	0.000000	0.014570
0.0500	0.000000	0.028168
0.0600	0.000000	0.048177
0.0700	0.000000	0.075719
0.0800	0.000000	0.111861
0.0900	0.000000	0.157621
0.1000	0.000000	0.213965
0.1100	0.000000	0.281810
0.1200	0.000000	0.362021
0.1300	0.000000	0.455417
0.1400	0.000000	0.562769
0.1500	0.000000	0.684800
0.1600	0.000000	0.822187
0.1700	0.000000	0.975562
0.1800	0.000000	1.145512
0.1900	0.000000	1.332579
0.2000	0.000000	1.537264
0.2100	0.000000	1.760024
0.2200	0.000000	2.001273
0.2300	0.000000	2.261387
0.2400	0.000000	2.540700
0.2500	0.000000	2.839506
0.2600	0.000000	3.158063
0.2700	0.000000	3.496587
0.2800	0.000000	3.855261
0.2900	0.000000	4.234229
0.3000	0.000000	4.633600
0.3100	0.000000	5.053448
0.3200	0.000000	5.493813
0.3300	0.000000	5.954702
0.3400	0.000000	6.436089
0.3500	0.000000	6.937916
0.3600	0.000000	7.460094
0.3700	0.000000	8.002504
0.3800	0.000000	8.564996
0.3900	0.000000	9.147394
0.4000	0.000000	9.749491
0.4100	0.000000	10.371055
0.4200	0.000000	11.011826
0.4300	0.000000	11.671518
0.4400	0.000000	12.349821
0.4500	0.000000	13.046400
0.4600	0.000000	13.760897
0.4700	0.000000	14.492932
0.4800	0.000000	15.242101
0.4900	0.000000	16.007979
0.5000	0.000000	16.790123
0.5100	0.000000	17.588068
0.5200	0.000000	18.401331
0.5300	0.000000	19.229409
0.5400	0.000000	20.071784
0.5500	0.000000	20.927921
0.5600	0.000000	21.797267
0.5700	0.000000	22.679256
0.5800	0.000000	23.573307
0.5900	0.000000	24.478824
0.6000	0.000000	25.395200
0.6100	0.000000	26.321815
0.6200	0.000000	27.258038
0.6300	0.000000	28.203227
0.6400	0.000000	29.156730
0.6500	0.000000	30.117886
0.6600	0.000000	31.086027
0.6700	0.000000	32.060474
0.6800	0.000000	33.040546
0.6900	0.000000	34.025551
0.7000	0.000000	35.014795
0.7100	0.000000	36.007579
0.7200	0.000000	37.003198
0.7300	0.000000	38.000948
0.7400	0.000000	39.000119
0.7500	0.000000	40.000000
0.7600	0.000000	40.999881
0.7700	0.000000	41.999052
0.7800	0.000000	42.996802
0.7900	0.000000	43.992421
0.8000	0.000000	44.985205
0.8100	0.000000	45.974449
0.8200	0.000000	46.959454
0.8300	0.000000	47.939526
0.8400	0.000000	48.913973
0.8500	0.000000	49.882114
0.8600	0.000000	50.843270
0.8700	0.000000	51.796773
0.8800	0.000000	52.741962
0.8900	0.000000	53.678185
0.9000	0.000000	54.604800
0.9100	0.000000	55.521176
0.9200	0.000000	56.426693
0.9300	0.000000	57.320744
0.9400	0.000000	58.202733
0.9500	0.000000	59.072079
0.9600	0.000000	59.928216
0.9700	0.000000	60.770591
0.9800	0.000000	61.598669
0.9900	0.000000	62.411932
1.0000	0.000000	63.209877
1.0100	0.000000	63.992021
1.0200	0.000000	64.757899
1.0300	0.000000	65.507068
1.0400	0.000000	66.239103
1.0500	0.000000	66.953600
1.0600	0.000000	67.650179
1.0700	0.000000	68.328482
1.0800	0.000000	68.988174
1.0900	0.000000	69.628945
1.1000	0.000000	70.250509
1.1100	0.000000	70.852606
1.1200	0.000000	71.435004
1.1300	0.000000	71.997496
1.1400	0.000000	72.539906
1.1500	0.000000	73.062084
1.1600	0.000000	73.563911
1.1700	0.000000	74.045298
1.1800	0.000000	74.506187
1.1900	0.000000	74.946552
1.2000	0.000000	75.366400
1.2100	0.000000	75.765771
1.2200	0.000000	76.144739
1.2300	0.000000	76.503413
1.2400	0.000000	76.841937
1.2500	0.000000	77.160494
1.2600	0.000000	77.459300
1.2700	0.000000	77.738613
1.2800	0.000000	77.998727
1.2900	0.000000	78.239976
1.3000	0.000000	78.462736
1.3100	0.000000	78.667421
1.3200	0.000000	78.854488
1.3300	0.000000	79.024438
1.3400	0.000000	79.177813
1.3500	0.000000	79.315200
1.3600	0.000000	79.437231
1.3700	0.000000	79.544583
1.3800	0.000000	79.637979
1.3900	0.000000	79.718190
1.4000	0.000000	79.786035
1.4100	0.000000	79.842379
1.4200	0.000000	79.888139
1.4300	0.000000	79.924281
1.4400	0.000000	79.951823
1.4500	0.000000	79.971832
1.4600	0.000000	79.985430
1.4700	0.000000	79.993790
1.4800	0.000000	79.998141
1.4900	0.000000	79.999765
1.5000	0.000000	80.000000
1.5100	0.000000	80.000000
1.5200	0.000000	80.000000
1.5300	0.000000	80.000000
1.5400	0.000000	80.000000
1.5500	0.000000	80.000000
1.5600	0.000000	80.000000
1.5700	0.000000	80.000000
1.5800	0.000000	80.000000
1.5900	0.000000	80.000000
1.6000	0.000000	80.000000
1.6100	0.000000	80.000000
1.6200	0.000000	80.000000
1.6300	0.000000	80.000000
1.6400	0.000000	80.000000
1.6500	0.000000	80.000000
1.6600	0.000000	80.000000
1.6700	0.000000	80.000000
1.6800	0.000000	80.000000
1.6900	0.000000	80.000000
1.7000	0.000000	80.000000
1.7100	0.000000	80.000000
1.7200	0.000000	80.000000
1.7300	0.000000	80.000000
1.7400	0.000000	80.000000
1.7500	0.000000	80.000000
1.7600	0.000000	80.000000
1.7700	0.000000	80.000000
1.7800	0.000000	80.000000
1.7900	0.000000	80.000000
1.8000	0.000000	80.000000
1.8100	0.000000	80.000000
1.8200	0.000000	80.000000
1.8300	0.000000	80.000000
1.8400	0.000000	80.000000
1.8500	0.000000	80.000000
1.8600	0.000000	80.000000
1.8700	0.000000	80.000000
1.8800	0.000000	80.000000
1.8900	0.000000	80.000000
1.9000	0.000000	80.000000
1.9100	0.000000	80.000000
1.9200	0.000000	80.000000
1.9300	0.000000	80.000000
1.9400	0.000000	80.000000
1.9500	0.000000	80.000000
1.9600	0.000000	80.000000
1.9700	0.000000	80.000000
1.9800	0.000000	80.000000
1.9900	0.000000	80.000000
2.0000	0.000000	80.000000
2.0100	0.000000	80.000000
2.0200	0.000000	80.000000
2.0300	0.000000	80.000000
2.0400	0.000000	80.000000
2.0500	0.000000	80.000000
2.0600	0.000000	80.000000
2.0700	0.000000	80.000000
2.0800	0.000000	80.000000
2.0900	0.000000	80.000000
2.1000	0.000000	80.000000
2.1100	0.000000	80.000000
2.1200	0.000000	80.000000
2.1300	0.000000	80.000000
2.1400	0.000000	80.000000
2.1500	0.000000	80.000000
2.1600	0.000000	80.000000
2.1700	0.000000	80.000000
2.1800	0.000000	80.000000
2.1900	0.000000	80.000000
2.2000	0.000000	80.000000
2.2100	0.000000	80.000000
2.2200	0.000000	80.000000
2.2300	0.000000	80.000000
2.2400	0.000000	80.000000
2.2500	0.000000	80.000000
2.2600	0.000000	80.000000
2.2700	0.000000	80.000000
2.2800	0.000000	80.000000
2.2900	0.000000	80.000000
2.3000	0.000000	80.000000
2.3100	0.000000	80.000000
